<svg xmlns="http://www.w3.org/2000/svg" viewBox="0 0 1200 630" role="img" aria-labelledby="title desc">
  <title id="title">Somnath Transport Service social card</title>
  <desc id="desc">Brand card with a truck icon, Ohio freight headline, and Somnath Transport Service wordmark.</desc>
  <rect width="1200" height="630" fill="#0A2342" />
  <rect x="52" y="52" width="1096" height="526" rx="34" fill="#102D52" stroke="#1A4875" />
  <path d="M0 512C255 453 415 457 641 367c193-77 335-158 559-209" fill="none" stroke="#F57C00" stroke-opacity=".92" stroke-width="22" stroke-linecap="round" />
  <g transform="translate(140 168)">
    <rect width="104" height="104" rx="26" fill="#F57C00" />
    <g transform="translate(18 24)" fill="none" stroke="#fff" stroke-linecap="round" stroke-linejoin="round" stroke-width="6">
      <path d="M4 12h30v22H4z" />
      <path d="M34 18h14l14 16v0H34z" />
      <circle cx="18" cy="40" r="7" />
      <circle cx="46" cy="40" r="7" />
      <path d="M12 40h12M40 40h12" />
    </g>
  </g>
  <text x="280" y="245" fill="#FFFFFF" font-family="'Barlow Semi Condensed', Arial Narrow, sans-serif" font-size="84" font-weight="800" letter-spacing="2">SOMNATH TRANSPORT SERVICE</text>
  <text x="280" y="315" fill="#F7EDE0" font-family="'Public Sans', sans-serif" font-size="34">Ohio-based freight support for FTL, LTL, local delivery, and interstate lanes.</text>
  <text x="140" y="468" fill="#F57C00" font-family="'Barlow Semi Condensed', Arial Narrow, sans-serif" font-size="44" font-weight="700" letter-spacing="4">GET A FREE QUOTE</text>
  <text x="140" y="522" fill="#D1DDED" font-family="'Public Sans', sans-serif" font-size="30">Call (614) 555-0100 or email info@somnathtransport.com</text>
</svg>